<svg xmlns="http://www.w3.org/2000/svg" xmlns:xlink="http://www.w3.org/1999/xlink" width="384" zoomAndPan="magnify" viewBox="0 0 288 86.249997" height="115" preserveAspectRatio="xMidYMid meet" version="1.0"><defs><g/></defs><g fill="#E4EAF2" fill-opacity="1"><g transform="translate(1.241384, 63.497833)"><g><path d="M 30.8125 -46 C 32.4375 -46 34.109375 -46 35.828125 -46 C 37.171875 -46 38.445312 -46 39.65625 -46 L 41.828125 -52.140625 C 42.242188 -52.742188 42.800781 -53.140625 43.5 -53.328125 C 44.65625 -53.328125 45.234375 -52.742188 45.234375 -51.578125 C 45.234375 -50.503906 44.675781 -48.644531 43.5625 -46 C 47.601562 -46 51.066406 -45.90625 53.953125 -45.71875 C 55.203125 -45.71875 55.828125 -45.1875 55.828125 -44.125 C 55.828125 -42.957031 55.25 -42.375 54.09375 -42.375 C 53.15625 -42.375 50.945312 -42.46875 47.46875 -42.65625 C 47.1875 -42.65625 46.90625 -42.65625 46.625 -42.65625 C 46.769531 -41.957031 46.84375 -41.125 46.84375 -40.15625 C 50.1875 -40.15625 52.019531 -38.597656 52.34375 -35.484375 C 52.34375 -32.828125 50.507812 -31.316406 46.84375 -30.953125 C 47.03125 -30.441406 47.125 -29.8125 47.125 -29.0625 C 50.375 -28.832031 52.140625 -27.320312 52.421875 -24.53125 C 52.421875 -20.632812 50.023438 -18.6875 45.234375 -18.6875 C 40.910156 -18.6875 38.75 -20.539062 38.75 -24.25 C 38.75 -27.039062 40.398438 -28.644531 43.703125 -29.0625 C 43.703125 -29.8125 43.75 -30.347656 43.84375 -30.671875 C 40.175781 -31.046875 38.34375 -32.554688 38.34375 -35.203125 C 38.34375 -38.128906 40.035156 -39.78125 43.421875 -40.15625 C 43.421875 -41.3125 43.46875 -42.144531 43.5625 -42.65625 C 41.425781 -42.65625 39.265625 -42.65625 37.078125 -42.65625 C 34.242188 -42.65625 31.269531 -42.65625 28.15625 -42.65625 C 28.34375 -41.769531 28.4375 -40.84375 28.4375 -39.875 C 31.6875 -39.6875 33.429688 -38.128906 33.671875 -35.203125 C 33.671875 -32.367188 31.992188 -30.765625 28.640625 -30.390625 C 28.785156 -29.878906 28.859375 -29.320312 28.859375 -28.71875 C 31.785156 -28.53125 33.363281 -26.972656 33.59375 -24.046875 C 33.59375 -20.648438 31.316406 -18.953125 26.765625 -18.953125 C 22.160156 -18.953125 19.859375 -20.648438 19.859375 -24.046875 C 19.859375 -26.785156 21.742188 -28.34375 25.515625 -28.71875 C 25.515625 -29.320312 25.535156 -29.8125 25.578125 -30.1875 C 21.953125 -30.320312 20.140625 -31.992188 20.140625 -35.203125 C 20.140625 -37.941406 21.789062 -39.5 25.09375 -39.875 C 25.09375 -41.03125 25.140625 -41.863281 25.234375 -42.375 C 21.191406 -42.375 18.660156 -42.304688 17.640625 -42.171875 C 16.660156 -42.171875 16.125 -42.820312 16.03125 -44.125 C 16.03125 -45.007812 16.796875 -45.539062 18.328125 -45.71875 C 21.117188 -45.71875 24.046875 -45.8125 27.109375 -46 C 25.992188 -48.832031 25.4375 -50.785156 25.4375 -51.859375 C 25.488281 -52.460938 25.953125 -52.859375 26.828125 -53.046875 C 27.429688 -53.046875 27.96875 -52.835938 28.4375 -52.421875 C 29.039062 -51.859375 29.832031 -49.71875 30.8125 -46 Z M 26.421875 -32.6875 C 29.203125 -32.6875 30.59375 -33.429688 30.59375 -34.921875 C 30.59375 -36.734375 29.335938 -37.640625 26.828125 -37.640625 C 24.554688 -37.640625 23.394531 -36.828125 23.34375 -35.203125 C 23.34375 -33.523438 24.367188 -32.6875 26.421875 -32.6875 Z M 26.90625 -21.75 C 29.269531 -21.75 30.453125 -22.515625 30.453125 -24.046875 C 30.453125 -25.347656 29.363281 -26 27.1875 -26 C 24.582031 -26 23.234375 -25.347656 23.140625 -24.046875 C 23.140625 -22.515625 24.394531 -21.75 26.90625 -21.75 Z M 45.03125 -33.453125 C 47.769531 -33.453125 49.140625 -34.035156 49.140625 -35.203125 C 49.140625 -37.054688 47.816406 -37.984375 45.171875 -37.984375 C 42.890625 -37.984375 41.703125 -37.054688 41.609375 -35.203125 C 41.609375 -34.035156 42.75 -33.453125 45.03125 -33.453125 Z M 45.375 -21.46875 C 48.019531 -21.46875 49.34375 -22.394531 49.34375 -24.25 C 49.34375 -25.601562 48.046875 -26.28125 45.453125 -26.28125 C 43.210938 -26.28125 42.070312 -25.601562 42.03125 -24.25 C 42.03125 -22.394531 43.144531 -21.46875 45.375 -21.46875 Z M 29.96875 -17.640625 C 31.363281 -17.640625 32.0625 -17.054688 32.0625 -15.890625 C 32.0625 -13.847656 32.0625 -11.710938 32.0625 -9.484375 C 32.0625 -8.179688 32.175781 -6.992188 32.40625 -5.921875 C 32.820312 -4.390625 33.566406 -3.179688 34.640625 -2.296875 C 35.753906 -0.953125 37.195312 0.179688 38.96875 1.109375 C 42.445312 2.972656 47.535156 4.460938 54.234375 5.578125 C 55.015625 5.765625 55.40625 6.320312 55.40625 7.25 C 55.40625 8.363281 54.800781 8.921875 53.59375 8.921875 C 49.695312 8.734375 44.191406 7.0625 37.078125 3.90625 C 35.222656 2.976562 33.53125 1.65625 32 -0.0625 C 30.601562 -1.550781 29.648438 -3.109375 29.140625 -4.734375 C 28.722656 -6.035156 28.488281 -7.363281 28.4375 -8.71875 C 28.34375 -10.570312 28.296875 -12.867188 28.296875 -15.609375 C 28.484375 -16.773438 29.039062 -17.453125 29.96875 -17.640625 Z M 49 -17.359375 C 50.25 -17.359375 50.875 -16.867188 50.875 -15.890625 C 50.875 -11.804688 50.597656 -8.738281 50.046875 -6.6875 C 49.910156 -5.570312 49.257812 -5.015625 48.09375 -5.015625 C 47.207031 -5.015625 46.765625 -5.570312 46.765625 -6.6875 C 47.140625 -8.914062 47.328125 -11.984375 47.328125 -15.890625 C 47.515625 -16.867188 48.070312 -17.359375 49 -17.359375 Z M 20.703125 -16.453125 C 22.003906 -16.453125 22.65625 -15.914062 22.65625 -14.84375 C 22.65625 -10.570312 22.328125 -7.296875 21.671875 -5.015625 C 21.535156 -4.085938 20.882812 -3.625 19.71875 -3.625 C 18.695312 -3.625 18.1875 -4.203125 18.1875 -5.359375 C 18.695312 -7.597656 18.953125 -10.757812 18.953125 -14.84375 C 19.140625 -15.726562 19.722656 -16.265625 20.703125 -16.453125 Z M 40.84375 -17.640625 C 42.050781 -17.640625 42.65625 -17.054688 42.65625 -15.890625 C 42.65625 -11.804688 42.378906 -8.738281 41.828125 -6.6875 C 41.640625 -5.800781 40.988281 -5.359375 39.875 -5.359375 C 38.988281 -5.359375 38.546875 -5.894531 38.546875 -6.96875 C 38.921875 -9.007812 39.109375 -12.078125 39.109375 -16.171875 C 39.242188 -16.960938 39.820312 -17.453125 40.84375 -17.640625 Z M 40.84375 -17.640625 "/></g></g></g><g fill="#E4EAF2" fill-opacity="1"><g transform="translate(72.620689, 63.497833)"><g><path d="M 33.671875 -36.25 L 21.1875 -36.25 C 21.28125 -34.195312 21.46875 -32.613281 21.75 -31.5 C 22.03125 -27.601562 26.023438 -25.46875 33.734375 -25.09375 C 33.734375 -25.28125 33.734375 -25.582031 33.734375 -26 C 33.734375 -29.664062 33.710938 -33.082031 33.671875 -36.25 Z M 33.734375 -21.75 C 24.210938 -22.125 19.125 -25.191406 18.46875 -30.953125 C 17.820312 -33.972656 17.5 -37.875 17.5 -42.65625 C 17.769531 -43.632812 18.300781 -44.125 19.09375 -44.125 C 20.300781 -44.125 20.953125 -43.632812 21.046875 -42.65625 C 21.046875 -41.582031 21.046875 -40.5625 21.046875 -39.59375 L 33.671875 -39.59375 C 33.617188 -43.675781 33.546875 -47.132812 33.453125 -49.96875 C 33.453125 -51.226562 34.128906 -52.046875 35.484375 -52.421875 C 36.691406 -52.234375 37.296875 -51.414062 37.296875 -49.96875 C 37.296875 -46.4375 37.296875 -42.976562 37.296875 -39.59375 L 50.75 -39.875 C 50.789062 -40.84375 50.832031 -41.863281 50.875 -42.9375 C 51.113281 -44.09375 51.789062 -44.671875 52.90625 -44.671875 C 54.0625 -44.492188 54.640625 -43.726562 54.640625 -42.375 C 54.640625 -37.175781 54.082031 -33.179688 52.96875 -30.390625 C 52.09375 -25.003906 46.796875 -22.125 37.078125 -21.75 C 37.078125 -12.082031 37.148438 -2.507812 37.296875 6.96875 C 37.296875 8.40625 36.691406 9.125 35.484375 9.125 C 34.410156 9.125 33.828125 7.941406 33.734375 5.578125 C 33.734375 -3.578125 33.734375 -12.6875 33.734375 -21.75 Z M 37.078125 -25.09375 C 44.796875 -25.28125 48.957031 -27.328125 49.5625 -31.234375 C 49.976562 -32.523438 50.300781 -34.289062 50.53125 -36.53125 L 37.296875 -36.53125 C 37.242188 -32.625 37.171875 -28.8125 37.078125 -25.09375 Z M 37.078125 -25.09375 "/></g></g></g><g fill="#E4EAF2" fill-opacity="1"><g transform="translate(143.999994, 63.497833)"><g><path d="M 19.09375 -50.53125 C 20.207031 -50.53125 21.742188 -49.507812 23.703125 -47.46875 C 25.609375 -45.050781 26.5625 -43.003906 26.5625 -41.328125 C 26.5625 -39.285156 24.65625 -36.941406 20.84375 -34.296875 C 18.46875 -32.847656 16.863281 -32.125 16.03125 -32.125 C 14.957031 -32.125 14.421875 -32.753906 14.421875 -34.015625 C 14.421875 -34.804688 15.117188 -35.476562 16.515625 -36.03125 C 20.648438 -38.40625 22.742188 -40.171875 22.796875 -41.328125 C 22.648438 -43.003906 21.789062 -44.46875 20.21875 -45.71875 C 18.164062 -47.070312 17.140625 -48.191406 17.140625 -49.078125 C 17.234375 -50.046875 17.882812 -50.53125 19.09375 -50.53125 Z M 24.390625 -30.1875 C 25.648438 -29.625 26.28125 -28.851562 26.28125 -27.875 C 26.28125 -15.425781 23.628906 -3.71875 18.328125 7.25 C 17.910156 7.988281 17.398438 8.359375 16.796875 8.359375 C 15.773438 8.359375 15.265625 7.78125 15.265625 6.625 C 15.265625 5.925781 15.585938 4.644531 16.234375 2.78125 C 17.347656 0.550781 18.328125 -1.953125 19.171875 -4.734375 C 21.816406 -12.171875 23.140625 -19.050781 23.140625 -25.375 C 23.140625 -25.375 23.09375 -25.375 23 -25.375 C 22.445312 -25.375 20.679688 -23.816406 17.703125 -20.703125 C 17.003906 -19.535156 16.191406 -18.953125 15.265625 -18.953125 C 14.378906 -18.953125 13.890625 -19.628906 13.796875 -20.984375 C 14.035156 -21.304688 14.242188 -21.75 14.421875 -22.3125 C 18.648438 -27.5625 21.972656 -30.1875 24.390625 -30.1875 Z M 41.953125 -51.578125 C 43.023438 -51.578125 43.628906 -51.226562 43.765625 -50.53125 C 44.003906 -49.375 44.125 -48.257812 44.125 -47.1875 C 49.695312 -46.769531 52.671875 -44.910156 53.046875 -41.609375 C 53.046875 -37.890625 49.882812 -35.847656 43.5625 -35.484375 C 43.65625 -35.296875 43.722656 -35.109375 43.765625 -34.921875 C 44.003906 -34.128906 44.125 -33.289062 44.125 -32.40625 C 50.488281 -32.21875 53.90625 -30.453125 54.375 -27.109375 C 54.375 -22.835938 50.304688 -20.703125 42.171875 -20.703125 C 34.828125 -20.703125 31.15625 -22.5625 31.15625 -26.28125 C 31.15625 -29.945312 34.128906 -31.988281 40.078125 -32.40625 C 40.078125 -33.476562 40.144531 -34.316406 40.28125 -34.921875 C 40.375 -35.109375 40.492188 -35.296875 40.640625 -35.484375 C 33.898438 -35.660156 30.53125 -37.515625 30.53125 -41.046875 C 30.53125 -44.535156 33.664062 -46.582031 39.9375 -47.1875 C 39.9375 -48.445312 40.03125 -49.5625 40.21875 -50.53125 C 40.539062 -51.226562 41.117188 -51.578125 41.953125 -51.578125 Z M 42.09375 -38.546875 C 46.976562 -38.546875 49.421875 -39.472656 49.421875 -41.328125 C 49.421875 -43.191406 46.976562 -44.125 42.09375 -44.125 C 37.125 -44.125 34.546875 -43.097656 34.359375 -41.046875 C 34.359375 -39.378906 36.9375 -38.546875 42.09375 -38.546875 Z M 42.375 -23.765625 C 47.53125 -23.765625 50.109375 -24.695312 50.109375 -26.5625 C 50.109375 -28.414062 47.460938 -29.34375 42.171875 -29.34375 C 37.984375 -29.34375 35.820312 -28.320312 35.6875 -26.28125 C 35.6875 -24.601562 37.914062 -23.765625 42.375 -23.765625 Z M 50.328125 -14.28125 C 46.472656 -13.125 43.242188 -12.101562 40.640625 -11.21875 C 41.335938 -9.363281 42.148438 -7.597656 43.078125 -5.921875 C 43.867188 -6.242188 44.660156 -6.59375 45.453125 -6.96875 C 49.160156 -8.457031 51.015625 -10.0625 51.015625 -11.78125 C 51.015625 -12.101562 50.785156 -12.9375 50.328125 -14.28125 Z M 39.875 -4.46875 C 38.894531 -6.132812 38.054688 -7.988281 37.359375 -10.03125 C 36.472656 -9.664062 35.726562 -9.390625 35.125 -9.203125 C 32.007812 -7.898438 30.109375 -7.25 29.421875 -7.25 C 28.578125 -7.25 28.085938 -7.738281 27.953125 -8.71875 C 28.046875 -9.226562 28.347656 -9.664062 28.859375 -10.03125 C 29.085938 -10.40625 31.523438 -11.429688 36.171875 -13.109375 C 35.242188 -14.773438 33.851562 -15.703125 32 -15.890625 C 31.207031 -16.078125 30.8125 -16.660156 30.8125 -17.640625 C 30.8125 -18.335938 31.4375 -18.6875 32.6875 -18.6875 C 36.082031 -18.164062 38.359375 -16.695312 39.515625 -14.28125 C 42.210938 -14.976562 45.375 -16.003906 49 -17.359375 C 48.582031 -18.242188 48.375 -18.773438 48.375 -18.953125 C 48.46875 -19.515625 48.957031 -20.003906 49.84375 -20.421875 C 50.71875 -20.421875 51.320312 -20.117188 51.65625 -19.515625 C 53.507812 -15.609375 54.4375 -12.84375 54.4375 -11.21875 C 54.4375 -8.757812 52.367188 -6.507812 48.234375 -4.46875 C 47.117188 -3.90625 46.050781 -3.460938 45.03125 -3.140625 C 46.09375 -1.609375 47.300781 -0.191406 48.65625 1.109375 C 51.394531 3.160156 54.179688 4.648438 57.015625 5.578125 C 57.578125 5.765625 57.859375 6.226562 57.859375 6.96875 C 57.859375 7.894531 57.34375 8.359375 56.3125 8.359375 C 52.78125 8.359375 48.859375 6.128906 44.546875 1.671875 C 43.515625 0.515625 42.609375 -0.597656 41.828125 -1.671875 C 35.640625 1.117188 31.78125 2.515625 30.25 2.515625 C 29.226562 2.515625 28.671875 2.046875 28.578125 1.109375 C 28.578125 0.503906 28.898438 0.0390625 29.546875 -0.28125 C 32.203125 -1.207031 35.644531 -2.601562 39.875 -4.46875 Z M 39.875 -4.46875 "/></g></g><g transform="translate(215.379299, 63.497833)"><g><path d="M 34.078125 -15.890625 C 34.078125 -19.609375 34.078125 -23.347656 34.078125 -27.109375 L 20.28125 -26.828125 C 18.789062 -27.015625 18 -28.203125 17.90625 -30.390625 C 17.90625 -34.148438 18.882812 -38.726562 20.84375 -44.125 C 21.21875 -44.675781 21.773438 -44.953125 22.515625 -44.953125 C 23.671875 -44.953125 24.25 -44.46875 24.25 -43.5 C 23.550781 -39.40625 22.691406 -35.316406 21.671875 -31.234375 C 21.671875 -30.671875 21.8125 -30.390625 22.09375 -30.390625 L 34.078125 -30.671875 C 34.078125 -36.804688 34.078125 -43.03125 34.078125 -49.34375 C 34.316406 -50.132812 34.875 -50.625 35.75 -50.8125 C 36.957031 -50.625 37.5625 -50.046875 37.5625 -49.078125 C 37.5625 -42.941406 37.5625 -36.804688 37.5625 -30.671875 L 52.765625 -30.953125 C 53.410156 -30.765625 53.828125 -30.226562 54.015625 -29.34375 C 53.921875 -28.1875 53.410156 -27.609375 52.484375 -27.609375 L 37.5625 -27.328125 C 37.5625 -23.421875 37.5625 -19.609375 37.5625 -15.890625 C 42.769531 -15.890625 47.09375 -15.796875 50.53125 -15.609375 C 51.882812 -15.609375 52.5625 -14.957031 52.5625 -13.65625 C 52.5625 -12.59375 51.929688 -12.0625 50.671875 -12.0625 C 49.929688 -12.0625 48.097656 -12.128906 45.171875 -12.265625 C 42.660156 -12.265625 40.125 -12.265625 37.5625 -12.265625 C 37.5625 -8.035156 37.5625 -3.785156 37.5625 0.484375 C 43.09375 0.671875 48.554688 0.878906 53.953125 1.109375 C 55.203125 1.296875 55.828125 1.851562 55.828125 2.78125 C 55.828125 4.269531 55.296875 5.015625 54.234375 5.015625 C 52.085938 5.015625 49.34375 4.921875 46 4.734375 C 42.976562 4.554688 39.957031 4.375 36.9375 4.1875 C 33.3125 4.1875 29.570312 4.28125 25.71875 4.46875 C 21.539062 4.644531 18.820312 4.734375 17.5625 4.734375 C 16.582031 4.734375 16.050781 4.082031 15.96875 2.78125 C 15.96875 1.664062 16.847656 0.992188 18.609375 0.765625 C 23.816406 0.765625 28.972656 0.765625 34.078125 0.765625 C 34.078125 -3.691406 34.078125 -8.035156 34.078125 -12.265625 C 31.847656 -12.265625 29.550781 -12.195312 27.1875 -12.0625 C 23.976562 -12.0625 21.929688 -11.96875 21.046875 -11.78125 C 20.023438 -11.78125 19.46875 -12.40625 19.375 -13.65625 C 19.375 -14.769531 20.1875 -15.421875 21.8125 -15.609375 C 25.488281 -15.796875 29.578125 -15.890625 34.078125 -15.890625 Z M 34.078125 -15.890625 "/></g></g></g></svg>