<?xml version="1.0" standalone="no"?>
<!DOCTYPE svg PUBLIC "-//W3C//DTD SVG 20010904//EN"
 "http://www.w3.org/TR/2001/REC-SVG-20010904/DTD/svg10.dtd">
<svg version="1.0" xmlns="http://www.w3.org/2000/svg"
 width="512.000000pt" height="512.000000pt" viewBox="0 0 512.000000 512.000000"
 preserveAspectRatio="xMidYMid meet">
<metadata>
Created by potrace 1.14, written by Peter Selinger 2001-2017
</metadata>
<g transform="translate(0.000000,512.000000) scale(0.100000,-0.100000)"
fill="#000000" stroke="none">
<path d="M1651 3476 c-6 -7 -10 -26 -9 -42 5 -70 -3 -174 -12 -174 -30 0 -169
-80 -207 -118 -83 -86 -97 -201 -33 -267 45 -46 88 -59 193 -60 68 0 86 -3 82
-13 -3 -8 -5 -24 -5 -37 0 -18 -7 -24 -34 -29 -45 -9 -121 -60 -145 -100 -12
-18 -26 -56 -33 -85 -16 -72 4 -114 68 -143 66 -29 189 -28 264 1 122 47 160
90 160 179 0 48 -4 58 -33 87 -30 30 -88 55 -129 55 -14 0 -18 9 -18 39 0 22
-3 46 -6 54 -4 11 4 17 28 22 18 4 73 24 122 43 108 44 139 78 140 152 1 38
-5 57 -29 91 -16 23 -41 50 -55 61 -31 22 -155 68 -185 68 -18 0 -24 7 -29 38
-3 20 -6 53 -6 73 0 86 -53 148 -89 105z m177 -352 c61 -17 102 -47 102 -74 0
-35 -180 -95 -350 -116 -53 -7 -120 16 -120 41 0 59 74 138 145 154 65 14 163
12 223 -5z m5 -524 c18 -16 -14 -47 -68 -68 -40 -16 -79 -22 -131 -22 -69 0
-74 1 -74 22 0 11 11 35 24 52 l23 31 109 -3 c60 -2 113 -7 117 -12z"/>
<path d="M871 3346 c-19 -23 -10 -70 14 -75 32 -6 105 -61 126 -94 27 -45 24
-93 -11 -153 -28 -49 -95 -108 -152 -134 -57 -27 -60 -102 -4 -116 62 -15 204
95 255 198 25 49 31 74 31 125 0 77 -16 118 -64 165 -38 37 -143 98 -169 98
-8 0 -20 -6 -26 -14z"/>
<path d="M3484 3229 c-17 -19 -19 -36 -17 -199 l3 -177 -141 -7 c-78 -4 -144
-5 -147 -1 -3 3 2 44 11 93 10 48 17 115 17 149 0 55 -3 64 -24 78 -39 26 -62
6 -75 -62 -6 -32 -25 -125 -43 -206 l-31 -148 22 -22 c21 -21 27 -22 218 -19
l196 4 -6 -84 c-4 -45 -7 -125 -7 -175 l0 -93 -46 0 c-69 0 -186 -20 -211 -36
-33 -21 -31 -67 3 -93 23 -18 41 -21 132 -21 l105 0 -7 -152 c-4 -84 -9 -154
-11 -156 -2 -2 -90 -8 -197 -12 -251 -12 -309 -25 -323 -70 -10 -31 3 -57 36
-71 45 -18 611 -3 807 23 45 5 153 11 240 12 172 1 202 10 222 62 12 31 -5 71
-34 80 -28 9 -172 7 -399 -7 -103 -6 -190 -9 -193 -6 -3 3 -2 75 3 159 l8 153
62 6 c71 7 110 28 119 65 15 60 -36 101 -99 82 -66 -20 -67 -18 -67 170 l0
169 63 6 c157 16 214 25 235 36 44 24 38 102 -10 120 -14 5 -57 3 -109 -4 -47
-7 -108 -15 -135 -16 l-49 -4 -12 120 c-6 66 -12 145 -12 175 -1 90 -51 130
-97 79z"/>
<path d="M1057 2732 c-42 -44 -183 -125 -220 -126 -44 -1 -49 -35 -10 -66 39
-30 97 -16 196 48 20 14 40 23 43 20 12 -12 -18 -259 -46 -379 -34 -147 -66
-232 -116 -308 -64 -96 -80 -169 -42 -195 29 -21 47 -9 101 66 94 132 126 215
173 443 43 211 44 490 1 517 -24 15 -54 8 -80 -20z"/>
<path d="M1807 2383 c-4 -4 -5 -20 -2 -37 4 -24 0 -34 -17 -47 -47 -33 -220
-130 -237 -132 -11 -1 -41 26 -80 71 -35 39 -69 72 -76 72 -43 0 -58 -68 -24
-110 11 -14 29 -37 39 -52 l20 -26 -74 -13 c-82 -13 -110 -32 -104 -70 5 -38
43 -51 133 -45 44 3 90 8 102 11 18 6 25 0 44 -37 12 -23 32 -56 45 -71 13
-16 24 -32 24 -37 0 -15 -121 -68 -202 -89 -93 -24 -135 -44 -143 -71 -10 -31
4 -59 31 -66 68 -17 249 32 354 95 l65 39 34 -25 c49 -38 124 -63 185 -63 44
0 58 4 80 26 55 55 22 131 -45 104 -34 -14 -105 -6 -133 15 -18 14 -17 17 26
63 62 67 88 120 88 182 0 52 -19 112 -46 141 -12 13 -13 22 -5 38 6 11 11 29
11 41 0 24 -27 81 -44 92 -14 10 -41 10 -49 1z m5 -240 c22 -20 24 -73 4 -112
-15 -28 -90 -101 -104 -101 -31 0 -119 119 -95 127 6 2 47 26 90 52 43 27 80
49 82 50 3 1 13 -6 23 -16z"/>
<path d="M2243 2165 c-58 -26 -72 -51 -23 -40 38 8 42 -16 5 -33 -27 -12 -32
-28 -12 -35 8 -3 5 -12 -10 -29 -22 -23 -31 -58 -15 -58 4 0 19 14 34 32 l28
33 -5 -30 c-16 -111 -16 -115 2 -108 13 5 15 3 8 -13 -4 -10 -8 -27 -9 -37 -2
-10 -22 -30 -45 -44 -54 -32 -42 -51 18 -27 23 9 44 14 47 11 3 -2 -5 -26 -17
-52 -15 -31 -18 -50 -12 -56 15 -15 37 11 52 62 19 65 25 73 59 80 26 5 34 2
51 -22 25 -33 69 -39 124 -15 48 20 69 50 74 103 6 60 -20 99 -72 109 -19 3
-35 12 -35 20 0 29 -102 84 -156 84 -17 0 -22 4 -18 15 4 10 0 15 -15 15 -27
0 -27 16 -1 30 11 6 18 15 15 21 -8 12 -12 11 -72 -16z m152 -124 c22 -10 46
-25 54 -35 12 -14 11 -18 -5 -31 -10 -8 -22 -15 -25 -15 -3 0 -18 -22 -32 -49
-23 -41 -33 -50 -67 -59 -41 -10 -58 -2 -43 21 4 6 8 30 9 52 1 136 1 135 37
135 17 0 50 -9 72 -19z m143 -150 c6 -41 -7 -67 -42 -86 -29 -16 -39 -17 -60
-7 -34 15 -34 36 -1 30 34 -7 43 11 17 33 -26 21 -27 23 -6 44 11 10 29 15 53
13 29 -2 37 -7 39 -27z"/>
<path d="M4570 1937 c0 -63 -6 -123 -15 -153 -20 -66 -19 -86 3 -82 53 10 75
338 22 338 -6 0 -10 -39 -10 -103z"/>
<path d="M4333 1974 c-40 -17 -42 -27 -5 -22 23 3 27 -1 27 -22 0 -16 -8 -28
-22 -35 -30 -13 -29 -25 2 -25 22 0 24 -3 19 -30 -7 -31 11 -65 27 -54 5 3 9
28 9 55 0 45 3 52 30 67 38 22 38 35 0 27 -28 -6 -30 -5 -30 24 0 34 -8 37
-57 15z"/>
<path d="M4486 1949 c-10 -53 -8 -63 9 -49 16 13 21 80 6 80 -5 0 -11 -14 -15
-31z"/>
</g>
</svg>
